<?xml version="1.0" encoding="utf-8"?>
<svg viewBox="0 0 24 24" version="1.1" id="svg1" xmlns="http://www.w3.org/2000/svg">
  <path id="path2" d="M 5 3 C 3.895 3 3 3.895 3 5 L 3 19 C 3 20.105 3.895 21 5 21 L 19 21 C 20.11 21 21 20.11 21 19 L 21 5 C 21 3.9 20.11 3 19 3 L 5 3 Z M 6.416 6.976 L 10.416 6.976 L 10.416 16.976 L 8.416 16.976 L 8.416 8.976 L 6.416 8.976 L 6.416 6.976 Z M 12.416 6.976 L 17.751 6.949 L 17.687 12.974 L 14.449 12.981 L 14.457 14.962 L 17.668 14.983 L 17.682 16.976 L 12.458 16.939 L 12.448 10.997 L 15.694 10.99 L 15.695 8.976 L 12.416 8.976 L 12.416 6.976 Z"/>
</svg>